<svg width="277" height="220" viewBox="0 0 277 220" fill="none" xmlns="http://www.w3.org/2000/svg">
<path fill-rule="evenodd" clip-rule="evenodd" d="M137.858 0.00816495C173.35 0.257418 212.602 5.8135 235.744 25.7247C257.805 44.7057 239.762 74.6195 251.776 98.0221C264.879 123.546 283.454 137.353 274.768 163.889C266.272 189.846 249.798 195.129 216.573 205.568C191.096 213.574 165.418 221.615 137.858 219.72C111.935 217.937 91.1763 205.64 69.1014 195.428C45.0666 184.309 14.3907 177.085 3.70892 157.658C-7.15956 137.892 8.77988 116.646 14.2649 95.696C20.7284 71.008 15.131 42.5203 38.6129 24.3403C63.2952 5.23088 102.135 -0.242716 137.858 0.00816495Z" fill="#E2E8EF"/>
</svg>
