<svg width="426" height="755" viewBox="0 0 426 755" fill="none" xmlns="http://www.w3.org/2000/svg">
<path fill-rule="evenodd" clip-rule="evenodd" d="M198.835 26.4784C246.708 10.6111 300.538 -23.3167 341.274 24.8219C382.194 73.1772 380.851 179.452 398.192 262.063C416.715 350.305 438.396 461.623 415 546C390.725 633.55 369.167 613.731 322.5 663.5C283.111 705.506 236.325 739.468 191.188 752.806C145.188 766.399 80.2308 711.679 45.5 655.5C13.0643 603.034 25.137 563.769 13.355 488.037C2.01584 415.151 -6.92426 337.864 7.40877 266.721C21.4871 196.841 -12.2995 101.919 21.5 59.5C54.6014 17.9572 159.196 39.6165 198.835 26.4784Z" fill="#E2E8EF"/>
</svg>
