<svg width="287" height="251" viewBox="0 0 287 251" fill="none" xmlns="http://www.w3.org/2000/svg">
<path fill-rule="evenodd" clip-rule="evenodd" d="M147.59 0.453549C178.762 3.70218 196.51 29.0762 220.589 45.2414C242.483 59.9395 271.433 69.435 281.991 90.6817C292.839 112.51 283.621 136.388 277.282 159.324C270.219 184.881 267.781 213.613 243.234 230.92C217.905 248.778 181.346 250.248 147.59 250.763C113.232 251.287 74.4858 252.545 49.2612 233.877C24.5806 215.612 30.9535 184.163 22.4405 158.143C14.5993 134.177 -5.4601 111.776 1.40959 87.62C8.53134 62.5772 33.5863 43.7843 59.3273 28.4352C85.3372 12.9257 115.421 -2.89904 147.59 0.453549Z" fill="#E2E8EF"/>
</svg>
