<svg width="781" height="261" viewBox="0 0 781 261" fill="none" xmlns="http://www.w3.org/2000/svg">
<path fill-rule="evenodd" clip-rule="evenodd" d="M380.13 1.11805C468.774 5.09062 524.899 37.599 599.949 46.5495C675 55.5 725.397 40.0943 757.5 64.5C791.37 90.2495 785.797 189.076 757.5 215.5C729.429 241.714 692.506 233.808 613.713 245.485C541.325 256.214 458.346 249.146 380.13 244.057C316.441 239.914 257.127 260.657 196.127 260.657C135.127 260.657 69.9288 235.051 35.6269 215.5C-3.33482 193.293 -4.88865 129.417 5.4054 104.185C17.3382 74.9366 40.2451 43.8736 110.298 24.6059C182.661 4.70254 285.485 -3.12344 380.13 1.11805Z" fill="#E2E8EF"/>
</svg>
