<svg width="14" height="397" viewBox="0 0 14 397" fill="none" xmlns="http://www.w3.org/2000/svg">
<path d="M9 7L8.99999 170" stroke="#F8F5F3"/>
<path d="M9 343L9 397" stroke="#F8F5F3"/>
<path d="M7.3623 329.569C8.56022 329.569 9.4668 329.883 10.082 330.512C10.694 331.14 11 332.063 11 333.28V334.989H3.86133V333.061C3.86133 331.921 4.15918 331.055 4.75488 330.463C5.35059 329.867 6.21973 329.569 7.3623 329.569ZM7.38184 330.111C6.3597 330.111 5.59147 330.372 5.07715 330.893C4.55957 331.41 4.30078 332.172 4.30078 333.178V334.491H10.5605V333.31C10.5605 331.177 9.50098 330.111 7.38184 330.111ZM11.0977 325.907C11.0977 326.679 10.86 327.281 10.3848 327.714C9.90951 328.144 9.24382 328.358 8.3877 328.358C7.54134 328.358 6.86426 328.15 6.35645 327.733C5.84538 327.317 5.58984 326.755 5.58984 326.049C5.58984 325.424 5.80794 324.931 6.24414 324.569C6.68034 324.208 7.27279 324.027 8.02148 324.027H8.41211V327.851C9.14128 327.844 9.69792 327.675 10.082 327.343C10.4661 327.007 10.6582 326.529 10.6582 325.907C10.6582 325.604 10.637 325.339 10.5947 325.111C10.5524 324.88 10.4613 324.589 10.3213 324.237H10.7607C10.891 324.537 10.9788 324.813 11.0244 325.067C11.0732 325.321 11.0977 325.601 11.0977 325.907ZM6.01953 326.049C6.01953 326.56 6.1888 326.97 6.52734 327.279C6.86263 327.589 7.34766 327.769 7.98242 327.821V324.54C7.36719 324.54 6.88704 324.674 6.54199 324.94C6.19368 325.207 6.01953 325.577 6.01953 326.049ZM9.61816 319.271C10.0934 319.271 10.4596 319.452 10.7168 319.813C10.9707 320.175 11.0977 320.688 11.0977 321.352C11.0977 322.061 10.9886 322.624 10.7705 323.041H10.248C10.515 322.507 10.6484 321.944 10.6484 321.352C10.6484 320.827 10.5622 320.43 10.3896 320.16C10.2139 319.887 9.98112 319.75 9.69141 319.75C9.42448 319.75 9.19987 319.859 9.01758 320.077C8.83529 320.292 8.65625 320.647 8.48047 321.142C8.28841 321.672 8.12402 322.045 7.9873 322.26C7.84733 322.475 7.69108 322.637 7.51855 322.748C7.34277 322.855 7.12956 322.909 6.87891 322.909C6.48177 322.909 6.16764 322.743 5.93652 322.411C5.7054 322.076 5.58984 321.609 5.58984 321.01C5.58984 320.437 5.69727 319.893 5.91211 319.379L6.35156 319.56C6.13672 320.08 6.0293 320.564 6.0293 321.01C6.0293 321.443 6.10091 321.786 6.24414 322.04C6.38737 322.294 6.58594 322.421 6.83984 322.421C7.11654 322.421 7.33789 322.323 7.50391 322.128C7.66992 321.929 7.85547 321.544 8.06055 320.971C8.23307 320.492 8.38932 320.144 8.5293 319.926C8.66602 319.708 8.82227 319.545 8.99805 319.438C9.17383 319.327 9.38053 319.271 9.61816 319.271ZM11 317.421V317.904H5.69238V317.421H11ZM4.21777 317.973C3.90527 317.973 3.74902 317.87 3.74902 317.665C3.74902 317.564 3.78971 317.486 3.87109 317.431C3.95247 317.372 4.06803 317.343 4.21777 317.343C4.36426 317.343 4.47982 317.372 4.56445 317.431C4.64909 317.486 4.69141 317.564 4.69141 317.665C4.69141 317.87 4.53353 317.973 4.21777 317.973ZM5.69238 311.498H6.0293L6.09766 312.597C6.46224 312.304 6.86263 312.157 7.29883 312.157C7.8099 312.157 8.22493 312.328 8.54395 312.67C8.8597 313.008 9.01758 313.464 9.01758 314.037C9.01758 314.278 9.00781 314.447 8.98828 314.545C9.08919 314.737 9.20801 314.883 9.34473 314.984C9.48145 315.085 9.6263 315.136 9.7793 315.136C9.94857 315.136 10.0723 315.072 10.1504 314.945C10.2285 314.815 10.2676 314.599 10.2676 314.296V313.368C10.2676 312.792 10.3848 312.351 10.6191 312.045C10.8503 311.739 11.1937 311.586 11.6494 311.586C12.2093 311.586 12.6406 311.814 12.9434 312.27C13.2493 312.722 13.4023 313.368 13.4023 314.208C13.4023 314.875 13.2738 315.393 13.0166 315.761C12.7594 316.125 12.4014 316.308 11.9424 316.308C11.5778 316.308 11.2751 316.195 11.0342 315.971C10.7933 315.743 10.6289 315.435 10.541 315.048C10.4727 315.207 10.3766 315.336 10.2529 315.434C10.126 315.528 9.98112 315.575 9.81836 315.575C9.46354 315.575 9.15104 315.349 8.88086 314.896C8.75391 315.206 8.55534 315.447 8.28516 315.619C8.01172 315.792 7.69922 315.878 7.34766 315.878C6.81706 315.878 6.39225 315.71 6.07324 315.375C5.75098 315.036 5.58984 314.581 5.58984 314.008C5.58984 313.66 5.62402 313.389 5.69238 313.197V311.498ZM11.8984 315.795C12.6276 315.795 12.9922 315.253 12.9922 314.169C12.9922 312.776 12.5479 312.079 11.6592 312.079C11.3402 312.079 11.109 312.188 10.9658 312.406C10.8226 312.624 10.751 312.978 10.751 313.466V314.335C10.751 315.308 11.1335 315.795 11.8984 315.795ZM7.34766 315.39C7.75781 315.39 8.07682 315.266 8.30469 315.019C8.5293 314.768 8.6416 314.434 8.6416 314.018C8.6416 313.575 8.5293 313.236 8.30469 313.002C8.08008 312.764 7.75456 312.646 7.32813 312.646C6.87565 312.646 6.53711 312.768 6.3125 313.012C6.08464 313.253 5.9707 313.591 5.9707 314.027C5.9707 314.451 6.09277 314.784 6.33691 315.028C6.5778 315.269 6.91471 315.39 7.34766 315.39ZM11 306.703H7.55762C7.02376 306.703 6.63639 306.815 6.39551 307.04C6.15137 307.265 6.0293 307.613 6.0293 308.085C6.0293 308.72 6.19043 309.185 6.5127 309.481C6.83171 309.774 7.35091 309.921 8.07031 309.921H11V310.404H5.69238V309.994L6.41992 309.901V309.872C5.86654 309.527 5.58984 308.913 5.58984 308.031C5.58984 306.827 6.236 306.225 7.52832 306.225H11V306.703ZM11.0977 302.362C11.0977 303.134 10.86 303.736 10.3848 304.169C9.90951 304.599 9.24382 304.813 8.3877 304.813C7.54134 304.813 6.86426 304.605 6.35645 304.188C5.84538 303.772 5.58984 303.21 5.58984 302.504C5.58984 301.879 5.80794 301.386 6.24414 301.024C6.68034 300.663 7.27279 300.482 8.02148 300.482H8.41211V304.306C9.14128 304.299 9.69792 304.13 10.082 303.798C10.4661 303.463 10.6582 302.984 10.6582 302.362C10.6582 302.06 10.637 301.794 10.5947 301.566C10.5524 301.335 10.4613 301.044 10.3213 300.692H10.7607C10.891 300.992 10.9788 301.269 11.0244 301.522C11.0732 301.776 11.0977 302.056 11.0977 302.362ZM6.01953 302.504C6.01953 303.015 6.1888 303.425 6.52734 303.734C6.86263 304.044 7.34766 304.224 7.98242 304.276V300.995C7.36719 300.995 6.88704 301.129 6.54199 301.396C6.19368 301.662 6.01953 302.032 6.01953 302.504ZM5.58984 297.074C5.58984 296.69 5.65983 296.358 5.7998 296.078C5.93978 295.798 6.17904 295.548 6.51758 295.326V295.297C6.10742 295.316 5.7054 295.326 5.31152 295.326H3.40234V294.848H11V295.165L10.1895 295.287V295.326C10.7949 295.73 11.0977 296.309 11.0977 297.064C11.0977 297.797 10.8698 298.357 10.4141 298.744C9.95833 299.132 9.29427 299.325 8.42188 299.325C7.50391 299.325 6.80241 299.133 6.31738 298.749C5.83236 298.365 5.58984 297.807 5.58984 297.074ZM6.0293 297.074C6.0293 297.654 6.23275 298.09 6.63965 298.383C7.04655 298.673 7.63737 298.817 8.41211 298.817C9.91602 298.817 10.668 298.233 10.668 297.064C10.668 296.465 10.4938 296.026 10.1455 295.746C9.7972 295.466 9.22266 295.326 8.42188 295.326H8.33887C7.51855 295.326 6.92936 295.465 6.57129 295.741C6.20996 296.015 6.0293 296.459 6.0293 297.074ZM11 287.24L10.1602 287.362V287.401C10.502 287.668 10.7445 287.943 10.8877 288.227C11.0277 288.507 11.0977 288.839 11.0977 289.223C11.0977 289.743 10.9642 290.149 10.6973 290.438C10.4303 290.728 10.0609 290.873 9.58887 290.873C9.07129 290.873 8.66927 290.658 8.38281 290.229C8.09635 289.796 7.94499 289.171 7.92871 288.354L7.89941 287.343H7.54785C7.04329 287.343 6.66243 287.445 6.40527 287.65C6.14811 287.855 6.01953 288.186 6.01953 288.642C6.01953 289.133 6.15625 289.643 6.42969 290.17L6.00977 290.351C5.73633 289.768 5.59961 289.192 5.59961 288.622C5.59961 288.039 5.75098 287.605 6.05371 287.318C6.35645 287.029 6.82845 286.884 7.46973 286.884H11V287.24ZM10.6582 289.193C10.6582 288.627 10.4971 288.181 10.1748 287.855C9.84928 287.527 9.39844 287.362 8.82227 287.362H8.2998L8.33887 288.29C8.37467 289.035 8.49186 289.568 8.69043 289.887C8.88574 290.202 9.19173 290.36 9.6084 290.36C9.94043 290.36 10.1992 290.259 10.3848 290.058C10.5671 289.853 10.6582 289.564 10.6582 289.193ZM11 281.459H7.55762C7.02376 281.459 6.63639 281.571 6.39551 281.796C6.15137 282.021 6.0293 282.369 6.0293 282.841C6.0293 283.476 6.19043 283.941 6.5127 284.237C6.83171 284.53 7.35091 284.677 8.07031 284.677H11V285.16H5.69238V284.75L6.41992 284.657V284.628C5.86654 284.283 5.58984 283.669 5.58984 282.787C5.58984 281.583 6.236 280.98 7.52832 280.98H11V281.459ZM5.58984 277.318C5.58984 276.934 5.65983 276.602 5.7998 276.322C5.93978 276.042 6.17904 275.792 6.51758 275.57V275.541C6.10742 275.561 5.7054 275.57 5.31152 275.57H3.40234V275.092H11V275.409L10.1895 275.531V275.57C10.7949 275.974 11.0977 276.553 11.0977 277.309C11.0977 278.041 10.8698 278.601 10.4141 278.988C9.95833 279.376 9.29427 279.569 8.42188 279.569C7.50391 279.569 6.80241 279.377 6.31738 278.993C5.83236 278.609 5.58984 278.051 5.58984 277.318ZM6.0293 277.318C6.0293 277.898 6.23275 278.334 6.63965 278.627C7.04655 278.917 7.63737 279.062 8.41211 279.062C9.91602 279.062 10.668 278.477 10.668 277.309C10.668 276.71 10.4938 276.27 10.1455 275.99C9.7972 275.71 9.22266 275.57 8.42188 275.57H8.33887C7.51855 275.57 6.92936 275.709 6.57129 275.985C6.20996 276.259 6.0293 276.703 6.0293 277.318ZM11.0977 268.588C11.0977 269.346 10.8584 269.94 10.3799 270.37C9.90137 270.8 9.23405 271.015 8.37793 271.015C7.49902 271.015 6.81543 270.792 6.32715 270.346C5.83561 269.9 5.58984 269.289 5.58984 268.515C5.58984 268.056 5.6696 267.616 5.8291 267.196L6.25879 267.328C6.10579 267.787 6.0293 268.186 6.0293 268.524C6.0293 269.175 6.23112 269.669 6.63477 270.004C7.03516 270.339 7.61296 270.507 8.36816 270.507C9.08431 270.507 9.64583 270.339 10.0527 270.004C10.4564 269.669 10.6582 269.2 10.6582 268.598C10.6582 268.116 10.5719 267.668 10.3994 267.255H10.8486C11.0146 267.593 11.0977 268.038 11.0977 268.588ZM8.33887 261.562C9.20475 261.562 9.88184 261.771 10.3701 262.191C10.8551 262.611 11.0977 263.191 11.0977 263.93C11.0977 264.395 10.9854 264.805 10.7607 265.16C10.5361 265.515 10.2139 265.787 9.79395 265.976C9.37402 266.164 8.889 266.259 8.33887 266.259C7.47298 266.259 6.79915 266.049 6.31738 265.629C5.83236 265.209 5.58984 264.633 5.58984 263.9C5.58984 263.171 5.83561 262.6 6.32715 262.187C6.81543 261.77 7.486 261.562 8.33887 261.562ZM8.33887 265.751C9.06803 265.751 9.6377 265.591 10.0479 265.272C10.4548 264.95 10.6582 264.496 10.6582 263.91C10.6582 263.324 10.4548 262.872 10.0479 262.553C9.6377 262.23 9.06803 262.069 8.33887 262.069C7.60645 262.069 7.03841 262.232 6.63477 262.558C6.23112 262.88 6.0293 263.334 6.0293 263.92C6.0293 264.506 6.23112 264.958 6.63477 265.277C7.03516 265.593 7.60319 265.751 8.33887 265.751ZM5.58984 258.148C5.58984 257.764 5.65983 257.432 5.7998 257.152C5.93978 256.872 6.17904 256.622 6.51758 256.4V256.371C6.10742 256.391 5.7054 256.4 5.31152 256.4H3.40234V255.922H11V256.239L10.1895 256.361V256.4C10.7949 256.804 11.0977 257.383 11.0977 258.139C11.0977 258.871 10.8698 259.431 10.4141 259.818C9.95833 260.206 9.29427 260.399 8.42188 260.399C7.50391 260.399 6.80241 260.207 6.31738 259.823C5.83236 259.439 5.58984 258.881 5.58984 258.148ZM6.0293 258.148C6.0293 258.728 6.23275 259.164 6.63965 259.457C7.04655 259.747 7.63737 259.892 8.41211 259.892C9.91602 259.892 10.668 259.307 10.668 258.139C10.668 257.54 10.4938 257.1 10.1455 256.82C9.7972 256.54 9.22266 256.4 8.42188 256.4H8.33887C7.51855 256.4 6.92936 256.539 6.57129 256.815C6.20996 257.089 6.0293 257.533 6.0293 258.148ZM11.0977 251.991C11.0977 252.763 10.86 253.365 10.3848 253.798C9.90951 254.228 9.24382 254.442 8.3877 254.442C7.54134 254.442 6.86426 254.234 6.35645 253.817C5.84538 253.401 5.58984 252.839 5.58984 252.133C5.58984 251.508 5.80794 251.015 6.24414 250.653C6.68034 250.292 7.27279 250.111 8.02148 250.111H8.41211V253.935C9.14128 253.928 9.69792 253.759 10.082 253.427C10.4661 253.091 10.6582 252.613 10.6582 251.991C10.6582 251.688 10.637 251.423 10.5947 251.195C10.5524 250.964 10.4613 250.673 10.3213 250.321H10.7607C10.891 250.621 10.9788 250.897 11.0244 251.151C11.0732 251.405 11.0977 251.685 11.0977 251.991ZM6.01953 252.133C6.01953 252.644 6.1888 253.054 6.52734 253.363C6.86263 253.673 7.34766 253.853 7.98242 253.905V250.624C7.36719 250.624 6.88704 250.757 6.54199 251.024C6.19368 251.291 6.01953 251.661 6.01953 252.133ZM5.58984 246.703C5.58984 246.319 5.65983 245.987 5.7998 245.707C5.93978 245.427 6.17904 245.176 6.51758 244.955V244.926C6.10742 244.945 5.7054 244.955 5.31152 244.955H3.40234V244.477H11V244.794L10.1895 244.916V244.955C10.7949 245.359 11.0977 245.938 11.0977 246.693C11.0977 247.426 10.8698 247.986 10.4141 248.373C9.95833 248.76 9.29427 248.954 8.42188 248.954C7.50391 248.954 6.80241 248.762 6.31738 248.378C5.83236 247.994 5.58984 247.436 5.58984 246.703ZM6.0293 246.703C6.0293 247.283 6.23275 247.719 6.63965 248.012C7.04655 248.301 7.63737 248.446 8.41211 248.446C9.91602 248.446 10.668 247.862 10.668 246.693C10.668 246.094 10.4938 245.655 10.1455 245.375C9.7972 245.095 9.22266 244.955 8.42188 244.955H8.33887C7.51855 244.955 6.92936 245.093 6.57129 245.37C6.20996 245.644 6.0293 246.088 6.0293 246.703ZM5.58984 237.851C5.58984 237.108 5.82422 236.55 6.29297 236.176C6.75846 235.798 7.44043 235.609 8.33887 235.609C9.22103 235.609 9.90137 235.808 10.3799 236.205C10.8584 236.599 11.0977 237.154 11.0977 237.87C11.0977 238.248 11.0195 238.588 10.8633 238.891C10.707 239.193 10.4857 239.433 10.1992 239.608V239.652L11 239.789V240.092H3.40234V239.608H5.31152C5.59798 239.608 5.86165 239.615 6.10254 239.628L6.51758 239.643V239.608C6.19857 239.407 5.96419 239.164 5.81445 238.881C5.66471 238.594 5.58984 238.251 5.58984 237.851ZM6.0293 237.86C6.0293 238.485 6.20833 238.933 6.56641 239.203C6.92448 239.473 7.5153 239.608 8.33887 239.608H8.42188C9.22266 239.608 9.7972 239.468 10.1455 239.188C10.4938 238.905 10.668 238.466 10.668 237.87C10.668 237.291 10.4661 236.854 10.0625 236.562C9.6556 236.269 9.0778 236.122 8.3291 236.122C6.7959 236.122 6.0293 236.701 6.0293 237.86ZM5.69238 235.023V234.525L8.6709 233.402C9.58561 233.061 10.2025 232.844 10.5215 232.753V232.724C10.1016 232.587 9.47493 232.364 8.6416 232.055L5.69238 230.932V230.434L11.8594 232.812C12.3607 233.004 12.6992 233.165 12.875 233.295C13.0508 233.425 13.1826 233.578 13.2705 233.754C13.3584 233.926 13.4023 234.136 13.4023 234.384C13.4023 234.569 13.3682 234.776 13.2998 235.004H12.8799C12.932 234.815 12.958 234.612 12.958 234.394C12.958 234.228 12.9189 234.081 12.8408 233.954C12.7627 233.827 12.6406 233.713 12.4746 233.612C12.3118 233.508 12.0514 233.389 11.6934 233.256C11.3385 233.119 11.1074 233.031 11 232.992L5.69238 235.023ZM11 223.686L4.4082 226.347V226.386C4.81185 226.36 5.22526 226.347 5.64844 226.347H11V226.825H3.86133V226.054L10.1406 223.524V223.495L3.86133 220.966V220.214H11V220.717H5.58984C5.21224 220.717 4.82161 220.697 4.41797 220.658V220.697L11 223.368V223.686ZM11.0977 216.171C11.0977 216.942 10.86 217.545 10.3848 217.978C9.90951 218.407 9.24382 218.622 8.3877 218.622C7.54134 218.622 6.86426 218.414 6.35645 217.997C5.84538 217.58 5.58984 217.019 5.58984 216.312C5.58984 215.688 5.80794 215.194 6.24414 214.833C6.68034 214.472 7.27279 214.291 8.02148 214.291H8.41211V218.114C9.14128 218.108 9.69792 217.938 10.082 217.606C10.4661 217.271 10.6582 216.793 10.6582 216.171C10.6582 215.868 10.637 215.603 10.5947 215.375C10.5524 215.144 10.4613 214.853 10.3213 214.501H10.7607C10.891 214.8 10.9788 215.077 11.0244 215.331C11.0732 215.585 11.0977 215.865 11.0977 216.171ZM6.01953 216.312C6.01953 216.824 6.1888 217.234 6.52734 217.543C6.86263 217.852 7.34766 218.033 7.98242 218.085V214.804C7.36719 214.804 6.88704 214.937 6.54199 215.204C6.19368 215.471 6.01953 215.84 6.01953 216.312ZM5.69238 208.686H6.0293L6.09766 209.784C6.46224 209.491 6.86263 209.345 7.29883 209.345C7.8099 209.345 8.22493 209.516 8.54395 209.857C8.8597 210.196 9.01758 210.652 9.01758 211.225C9.01758 211.465 9.00781 211.635 8.98828 211.732C9.08919 211.924 9.20801 212.071 9.34473 212.172C9.48145 212.273 9.6263 212.323 9.7793 212.323C9.94857 212.323 10.0723 212.26 10.1504 212.133C10.2285 212.003 10.2676 211.786 10.2676 211.483V210.556C10.2676 209.979 10.3848 209.538 10.6191 209.232C10.8503 208.926 11.1937 208.773 11.6494 208.773C12.2093 208.773 12.6406 209.001 12.9434 209.457C13.2493 209.91 13.4023 210.556 13.4023 211.396C13.4023 212.063 13.2738 212.58 13.0166 212.948C12.7594 213.313 12.4014 213.495 11.9424 213.495C11.5778 213.495 11.2751 213.383 11.0342 213.158C10.7933 212.93 10.6289 212.623 10.541 212.235C10.4727 212.395 10.3766 212.523 10.2529 212.621C10.126 212.715 9.98112 212.763 9.81836 212.763C9.46354 212.763 9.15104 212.536 8.88086 212.084C8.75391 212.393 8.55534 212.634 8.28516 212.807C8.01172 212.979 7.69922 213.065 7.34766 213.065C6.81706 213.065 6.39225 212.898 6.07324 212.562C5.75098 212.224 5.58984 211.768 5.58984 211.195C5.58984 210.847 5.62402 210.577 5.69238 210.385V208.686ZM11.8984 212.982C12.6276 212.982 12.9922 212.44 12.9922 211.356C12.9922 209.963 12.5479 209.267 11.6592 209.267C11.3402 209.267 11.109 209.376 10.9658 209.594C10.8226 209.812 10.751 210.165 10.751 210.653V211.522C10.751 212.496 11.1335 212.982 11.8984 212.982ZM7.34766 212.577C7.75781 212.577 8.07682 212.453 8.30469 212.206C8.5293 211.955 8.6416 211.622 8.6416 211.205C8.6416 210.762 8.5293 210.424 8.30469 210.189C8.08008 209.952 7.75456 209.833 7.32813 209.833C6.87565 209.833 6.53711 209.955 6.3125 210.199C6.08464 210.44 5.9707 210.779 5.9707 211.215C5.9707 211.638 6.09277 211.972 6.33691 212.216C6.5778 212.457 6.91471 212.577 7.34766 212.577ZM11 204.369L10.1602 204.491V204.53C10.502 204.797 10.7445 205.072 10.8877 205.355C11.0277 205.635 11.0977 205.967 11.0977 206.352C11.0977 206.872 10.9642 207.278 10.6973 207.567C10.4303 207.857 10.0609 208.002 9.58887 208.002C9.07129 208.002 8.66927 207.787 8.38281 207.357C8.09635 206.924 7.94499 206.299 7.92871 205.482L7.89941 204.472H7.54785C7.04329 204.472 6.66243 204.574 6.40527 204.779C6.14811 204.984 6.01953 205.315 6.01953 205.771C6.01953 206.262 6.15625 206.771 6.42969 207.299L6.00977 207.479C5.73633 206.897 5.59961 206.321 5.59961 205.751C5.59961 205.168 5.75098 204.734 6.05371 204.447C6.35645 204.158 6.82845 204.013 7.46973 204.013H11V204.369ZM10.6582 206.322C10.6582 205.756 10.4971 205.31 10.1748 204.984C9.84928 204.656 9.39844 204.491 8.82227 204.491H8.2998L8.33887 205.419C8.37467 206.164 8.49186 206.697 8.69043 207.016C8.88574 207.331 9.19173 207.489 9.6084 207.489C9.94043 207.489 10.1992 207.388 10.3848 207.187C10.5671 206.981 10.6582 206.693 10.6582 206.322ZM11 198.588H7.55762C7.02376 198.588 6.63639 198.7 6.39551 198.925C6.15137 199.149 6.0293 199.498 6.0293 199.97C6.0293 200.604 6.19043 201.07 6.5127 201.366C6.83171 201.659 7.35091 201.806 8.07031 201.806H11V202.289H5.69238V201.879L6.41992 201.786V201.757C5.86654 201.412 5.58984 200.798 5.58984 199.916C5.58984 198.712 6.236 198.109 7.52832 198.109H11V198.588ZM11 188.871V189.481L7.23047 192.221L8.07031 193.173H11V193.671H3.86133V193.173H7.57227L6.78125 192.382L3.86133 189.584V188.949L6.87891 191.874L11 188.871ZM5.69238 187.562H9.12988C9.66374 187.562 10.0527 187.45 10.2969 187.226C10.5378 187.001 10.6582 186.653 10.6582 186.181C10.6582 185.549 10.4987 185.085 10.1797 184.789C9.86068 184.49 9.34147 184.34 8.62207 184.34H5.69238V183.861H11V184.271L10.2676 184.359V184.389C10.821 184.734 11.0977 185.347 11.0977 186.229C11.0977 187.437 10.4515 188.041 9.15918 188.041H5.69238V187.562ZM8.33887 177.694C9.20475 177.694 9.88184 177.904 10.3701 178.324C10.8551 178.744 11.0977 179.324 11.0977 180.062C11.0977 180.528 10.9854 180.938 10.7607 181.293C10.5361 181.648 10.2139 181.92 9.79395 182.108C9.37402 182.297 8.889 182.392 8.33887 182.392C7.47298 182.392 6.79915 182.182 6.31738 181.762C5.83236 181.342 5.58984 180.766 5.58984 180.033C5.58984 179.304 5.83561 178.733 6.32715 178.319C6.81543 177.903 7.486 177.694 8.33887 177.694ZM8.33887 181.884C9.06803 181.884 9.6377 181.724 10.0479 181.405C10.4548 181.083 10.6582 180.629 10.6582 180.043C10.6582 179.457 10.4548 179.005 10.0479 178.686C9.6377 178.363 9.06803 178.202 8.33887 178.202C7.60645 178.202 7.03841 178.365 6.63477 178.69C6.23112 179.013 6.0293 179.467 6.0293 180.053C6.0293 180.639 6.23112 181.091 6.63477 181.41C7.03516 181.726 7.60319 181.884 8.33887 181.884Z" fill="#7B5D8E"/>
<circle cx="9.5" cy="3.5" r="3.5" fill="#F8F5F3"/>
</svg>
