<svg id="Layer_2" data-name="Layer 2" xmlns="http://www.w3.org/2000/svg" viewBox="0 0 342.28 242.88"><defs><style>.cls-1{fill:#733f0b;}</style></defs><path class="cls-1" d="M125.53,106.18c-13-.18-13,20.27,0,20.09C138.54,126.45,138.54,106,125.53,106.18Z"/><path class="cls-1" d="M217.1,106.18c-13-.18-13,20.27,0,20.09C230.1,126.45,230.1,106,217.1,106.18Z"/><path class="cls-1" d="M178.17,137.68c6.58-5.72,2-17.63-6.86-17.31-8.87-.32-13.43,11.59-6.85,17.31l-15.55,15.58a5.64,5.64,0,1,0,8,8l14.43-14.46,14.44,14.46a5.65,5.65,0,1,0,8-8Z"/><path class="cls-1" d="M325.61,160c-6.32,0-10.35,3.5-12.13,7.93h-10c-15.47-14.63-10.89-14-30.75-13.63v-7h13.89a5.26,5.26,0,0,0,3.46-1.11c4.79-1.89,13.44-6.11,14.51-6.44l11.55,2.8a12.6,12.6,0,0,0,12.93,10.7c17.59-.09,17.59-26.81,0-26.9a12.58,12.58,0,0,0-10.74,5.32c-17.71-4.7-14-3.81-32.44,4.34h-6a60.52,60.52,0,0,0-7.13-.13v-8.69h6.81a45.64,45.64,0,0,0,5.73,0H287c3.36.74,16.08-13.56,18.61-15.22h6.24c1.84,4.27,5.84,7.57,12,7.61,17.58-.09,17.58-26.82,0-26.91-6.47,0-10.56,3.68-12.27,8.27-3.59,0-8.13,0-8.13,0-3.2-.7-14.56,11.94-18.05,14.8-4.51-.41-10.05.51-12.67.08V38.53c.27-8.23-10.38-13.07-16.38-7.43L213.38,69H129.25l-43-37.87c-6-5.64-16.66-.79-16.39,7.43v77.21c-3,.5-9.57-.73-14.28.14H54c-2.52-1.68-13-14.3-16.48-13.59h-8.7C27,97.86,23,94.39,16.68,94.36c-17.59.09-17.59,26.81,0,26.9,6.31,0,10.35-3.5,12.13-7.93H35.3C47.84,125.18,47.19,127,57.07,127.09A68.76,68.76,0,0,0,66.3,127l2,0h.12a11.8,11.8,0,0,1,1.47.12v8.91c-3,.49-9.61-.74-14.32.15h-.29c-1.26-.46-15.57,6.6-17,7.08L26,137.69c-1.21-5.46-5.48-10.15-12.83-10.19-17.59.09-17.59,26.81,0,26.91a12.56,12.56,0,0,0,10.86-5.52c5.09,2.36,13.39,6.24,14.16,5.84,1,.54,15.9-6.71,18.06-7.54,3.36.48,7.51,0,10.61-.06h2a8.93,8.93,0,0,1,1,.1V156c-18.57.1-15.57-3.19-27.83,13.77H34a5.54,5.54,0,0,0-2.1.35c-1.7-4.6-5.78-8.26-12.27-8.29-17.58.09-17.59,26.81,0,26.91,6.48,0,10.57-3.69,12.27-8.29a5.75,5.75,0,0,0,2.1.35H44.77c4.45.65,10.62-11.36,13.23-13.79H69.87v44.3s0,.07,0,.11c-12.33,7.92-9.24,31.36,9.3,31.46,17.95-.1,21.41-22.11,10.4-30.69,0-.29,0-.58,0-.88V60.37c4.5,2.81,30.24,29.79,35.91,28.35,2.92-.88,98.75,2.37,98.09-2.46L253,60.37V211.31c0,.06,0,.11,0,.17-12.21,8-9.09,31.3,9.39,31.4,18-.1,21.45-22.27,10.3-30.78,0-.26,0-.52,0-.79v-46h12.06c14.89,14,11.11,14,28.7,13.67,1.8,4.39,5.82,7.82,12.1,7.85C343.19,186.76,343.2,160,325.61,160Zm3.48-22.64c3.14,0,3.14,4.88,0,4.84S326,137.27,329.09,137.31Zm-5.22-33.67c3.13,0,3.13,4.88,0,4.83S320.73,103.59,323.87,103.64ZM16.68,110.23c-3.14,0-3.14-4.88,0-4.84S19.81,110.27,16.68,110.23Zm-3.49,33.14c-3.14,0-3.14-4.88,0-4.83S16.33,143.42,13.19,143.37Zm6.47,34.33c-3.13.05-3.13-4.88,0-4.84S22.8,177.75,19.66,177.7Zm59.52,52.92c-6.19.08-6.19-9.62,0-9.54C85.36,221,85.36,230.7,79.18,230.62Zm183.23,0c-5.94.08-6.17-8.88-.68-9.5a11,11,0,0,0,1.16.07l.54,0C268.57,222.1,268.24,230.7,262.41,230.62Zm63.2-54.8c-3.14,0-3.14-4.88,0-4.84S328.74,175.86,325.61,175.82Z"/><path class="cls-1" d="M125.32,24.62,146.1,37a5.32,5.32,0,0,0,2.53.92,2.16,2.16,0,0,0,1.41-.58,8.75,8.75,0,0,0,1.53-2,4.85,4.85,0,0,0,.85-2.36,2.46,2.46,0,0,0-1.07-1.89A9.25,9.25,0,0,0,150,30.2L135,21.27q.59-.39,15.06-8.94a6.33,6.33,0,0,0,2-1.79,2.43,2.43,0,0,0,.34-1.29A5.08,5.08,0,0,0,151.44,7c-.93-1.58-1.84-2.38-2.71-2.38a2.94,2.94,0,0,0-1.27.25,21.46,21.46,0,0,0-3,1.65Q142,8,125.37,17.87a3.47,3.47,0,0,0-1.94,3.4A3.4,3.4,0,0,0,125.32,24.62Z"/><path class="cls-1" d="M168.88,40a6.45,6.45,0,0,0,2.42.73,2.28,2.28,0,0,0,1.34-.36,2.58,2.58,0,0,0,.73-.76c.14-.26.35-.66.6-1.21L189.56,6a8.83,8.83,0,0,0,.68-2.43c0-1-.87-1.92-2.62-2.76A7,7,0,0,0,185.17,0,2.58,2.58,0,0,0,184,.19c-.49.2-1,.91-1.66,2.14L166.74,35a9.21,9.21,0,0,0-.58,2.43,1.71,1.71,0,0,0,.56,1.24A7.76,7.76,0,0,0,168.88,40Z"/><path class="cls-1" d="M191.94,32a2.66,2.66,0,0,0-.29,1.26,5.36,5.36,0,0,0,1,2.33A7.56,7.56,0,0,0,194,37.29q1.5,1.26,4-.34l20.73-12.33a3.39,3.39,0,0,0,1.9-3.35,3.49,3.49,0,0,0-1.94-3.4L198,5.54a5,5,0,0,0-2.62-.93c-.87,0-1.81.85-2.82,2.53a4.68,4.68,0,0,0-.82,2.33,2.62,2.62,0,0,0,1.07,2,12.22,12.22,0,0,0,1.31.87l15,8.94L194,30.2A6.39,6.39,0,0,0,191.94,32Z"/></svg>