<svg xmlns="http://www.w3.org/2000/svg" viewBox="0 0 400 400"><defs><style>.cls-1{fill:#733f0b;}.cls-2{fill:none;stroke:#733f0b;stroke-miterlimit:10;stroke-width:12px;}</style></defs><g id="Layer_2" data-name="Layer 2"><g id="Layer_2-2" data-name="Layer 2"><path class="cls-1" d="M154.2,179.8c-13-.2-13,20.3,0,20.1C167.2,200.1,167.2,179.6,154.2,179.8Z"/><path class="cls-1" d="M245.8,179.8c-13-.2-13,20.3,0,20.1C258.8,200.1,258.8,179.6,245.8,179.8Z"/><path class="cls-1" d="M206.9,211.3c6.6-5.7,2-17.6-6.9-17.3-8.9-.3-13.4,11.6-6.9,17.3l-15.5,15.6a5.66,5.66,0,0,0,8,8L200,220.4l14.4,14.5a5.66,5.66,0,0,0,8-8Z"/><path class="cls-1" d="M354.3,233.5a12.5,12.5,0,0,0-12.2,8.1h-9.9c-15.4-14.7-10.9-14.1-30.5-13.8v-7.2h14c.1.1.4,0,.8-.1a5,5,0,0,0,1.3-.4c4.5-1.7,14.3-6.4,15.4-6.8,0,0,7.6,1.8,11.6,2.8a12.54,12.54,0,0,0,12.9,10.7c17.6-.1,17.6-26.8,0-26.9a12.39,12.39,0,0,0-10.7,5.3c-17.7-4.7-14-3.8-32.5,4.4h-4.8c-2.5-.1-5.4-.3-8-.2v-8.7c.2,0,.5-.1.8-.1h2.6c3.2.1,7.3.5,10.6,0h.2a3,3,0,0,0,2-.6,6.34,6.34,0,0,0,2.3-1.6c5-3.9,12.2-11.7,14-12.9h6.4a12.47,12.47,0,0,0,12,7.5c17.6-.1,17.6-26.8,0-26.9a12.42,12.42,0,0,0-12.3,8.4h-8.2c-3.2-.7-14.7,12.1-17.9,14.7-4.5-.4-9.8.5-12.4.1V112.1c.3-8.2-10.4-13.1-16.4-7.4l-43,37.9H158.9l-43.6-37.9c-6.1-5.6-16.9-.8-16.6,7.4v77.2c-3.1.5-10.1-.8-14.9.2h-.9c-2.6-1.7-13.4-14.7-17-14H57.3c-1.8-4.3-5.8-7.6-12-7.6-17.6.1-17.6,26.8,0,26.9a12.56,12.56,0,0,0,12.3-8.3H64s5,6.7,15.4,10.8c2.5,5.5,14.9,2.5,19.3,3.2v8.9H94a55.3,55.3,0,0,0-9.1,0h-1c-1.3-.5-15.5,6.6-17,7.1,0,0-9-4-12.3-5.5-1.2-5.4-5.5-10-12.8-10-17.6.1-17.6,26.8,0,26.9a12.48,12.48,0,0,0,10.9-5.6c5.1,2.4,13.3,6.2,14.1,5.8,1,.5,14.8-6.2,17.7-7.4,4.7.7,11.2-.4,14.1.1v7.8c-18.7.1-15.7-3.5-28,15h-8a6.45,6.45,0,0,0-2,.3,12.5,12.5,0,0,0-12.3-8.5c-17.6.1-17.6,26.8,0,26.9,6.4,0,10.5-3.6,12.2-8.1a6.65,6.65,0,0,0,2.2.4H73.4c4.5.7,10.8-11.5,13.4-14H98.7v44.3c-12.5,7.8-9.4,31.4,9.2,31.5,17.7-.1,21.3-21.6,10.8-30.4V133.9c4.5,2.8,30.2,29.7,35.8,28.3,2.9-.9,98.5,2.4,97.8-2.5l29.3-25.8V285c-12.2,8-9.1,31.3,9.4,31.4,17.9-.1,21.4-22,10.5-30.6,0-.4.1-.8.1-1.2v-46h11.8c14.9,14.4,11.1,14.4,28.7,14,1.8,4.4,5.8,7.8,12.1,7.9C371.9,260.4,371.9,233.6,354.3,233.5Zm3.5-22.6c3.1,0,3.1,4.9,0,4.8C354.7,215.8,354.7,210.9,357.8,210.9Zm-5.2-33.7c3.1,0,3.1,4.9,0,4.8C349.4,182.1,349.4,177.2,352.6,177.2ZM45.4,183.8c-3.1,0-3.1-4.9,0-4.8C48.5,178.9,48.5,183.9,45.4,183.8ZM41.9,217c-3.1,0-3.1-4.9,0-4.8C45,212.1,45,217,41.9,217Zm6.5,34.3c-3.1,0-3.1-4.9,0-4.8C51.5,246.4,51.5,251.3,48.4,251.3Zm59.5,52.9c-6.2.1-6.2-9.6,0-9.5C114.1,294.6,114.1,304.3,107.9,304.2Zm183.2,0c-6.2.1-6.2-9.6,0-9.5C297.3,294.6,297.3,304.3,291.1,304.2Zm63.2-54.8c-3.1,0-3.1-4.9,0-4.8C357.4,244.5,357.4,249.5,354.3,249.4Z"/><path class="cls-1" d="M154,98.2l20.8,12.3a5.42,5.42,0,0,0,2.5.9,2,2,0,0,0,1.4-.6,5.74,5.74,0,0,0,1.5-2,6,6,0,0,0,.9-2.4,2.55,2.55,0,0,0-1.1-1.9c-.3-.2-.7-.5-1.3-.9l-15.1-8.9c.4-.3,5.4-3.2,15.1-8.9a7.36,7.36,0,0,0,2-1.8,2.77,2.77,0,0,0,.3-1.3,5.24,5.24,0,0,0-.9-2.3q-1.35-2.4-2.7-2.4a5.07,5.07,0,0,0-1.3.2,19,19,0,0,0-3,1.7c-1.7,1-8,4.8-19.1,11.4a3.42,3.42,0,0,0-1.9,3.4A3.53,3.53,0,0,0,154,98.2Z"/><path class="cls-1" d="M197.6,113.6a6.43,6.43,0,0,0,2.4.7,1.84,1.84,0,0,0,1.3-.4,1.78,1.78,0,0,0,.7-.8,6.57,6.57,0,0,1,.6-1.2l15.6-32.4a7.59,7.59,0,0,0,.7-2.4c0-1-.9-1.9-2.6-2.8a7.55,7.55,0,0,0-2.5-.8,2.68,2.68,0,0,0-1.1.2c-.5.2-1,.9-1.7,2.1l-15.6,32.8a9.82,9.82,0,0,0-.6,2.4,1.56,1.56,0,0,0,.6,1.2A7.57,7.57,0,0,0,197.6,113.6Z"/><path class="cls-1" d="M220.6,105.6a2.77,2.77,0,0,0-.3,1.3,4.6,4.6,0,0,0,1,2.3,6.61,6.61,0,0,0,1.4,1.7c1,.8,2.3.7,4-.3l20.7-12.3a3.33,3.33,0,0,0,1.9-3.4,3.42,3.42,0,0,0-1.9-3.4L226.7,79.1a5.07,5.07,0,0,0-2.6-.9c-.9,0-1.8.8-2.8,2.5a4.22,4.22,0,0,0-.8,2.3,2.73,2.73,0,0,0,1.1,2c.3.2.7.5,1.3.9L238,94.8l-15.1,8.9A6.75,6.75,0,0,0,220.6,105.6Z"/><circle class="cls-2" cx="200" cy="200" r="194"/></g></g></svg>